<svg xmlns="http://www.w3.org/2000/svg" viewBox="0 0 512 512">
  <defs>
    <radialGradient id="bg" cx="45%" cy="30%" r="75%">
      <stop offset="0%" stop-color="#fbbf24"/>
      <stop offset="100%" stop-color="#78350f"/>
    </radialGradient>
  </defs>
  <rect width="512" height="512" rx="96" fill="url(#bg)"/>
  <!-- Flame with cross cutout (even-odd): cross at 1/3 from top, 38px arms -->
  <path fill-rule="evenodd" d="
    M256 400 C190 385 140 330 148 262 C156 194 196 158 220 108 C236 70 250 48 256 48
    C262 48 276 70 292 108 C316 158 356 194 364 262 C372 330 322 385 256 400Z
    M237 152 L275 152 L275 206 L312 206 L312 244 L275 244 L275 370
    L237 370 L237 244 L200 244 L200 206 L237 206 Z
  " fill="white"/>
</svg>
